<svg width="43" height="50" viewBox="0 0 43 50" fill="none" xmlns="http://www.w3.org/2000/svg">
<path d="M39.0727 0.13974H3.89607C1.06075 0.13974 0.00140381 1.19564 0.00140381 4.03726V38.3385C0.00140381 38.6646 0.0169825 38.9596 0.0481398 39.2391C0.110454 39.8602 0.126033 40.4658 0.702444 41.1491C0.764759 41.2112 1.35675 41.6615 1.35675 41.6615C1.66832 41.8168 1.88642 41.9255 2.24473 42.0807L19.5526 49.3168C20.4562 49.7205 20.8301 49.8913 21.4844 49.8758C22.1387 49.8913 22.5126 49.736 23.4161 49.3168L40.724 42.0807C41.0824 41.941 41.3005 41.8168 41.612 41.6615C41.612 41.6615 42.204 41.2267 42.2663 41.1491C42.8427 40.4658 42.8583 39.8602 42.9206 39.2391C42.9518 38.9596 42.9674 38.6646 42.9674 38.3385V4.03726C42.9674 1.19564 41.9236 0.13974 39.0727 0.13974Z" fill="black"/>
<path d="M36.7048 34.6273L36.6892 34.705L36.6736 34.7982L36.658 34.8758L36.6269 34.9534L36.6113 35.0311L36.5801 35.1087L36.549 35.1864L36.5178 35.2485L36.4866 35.3261L36.4399 35.3882L36.3932 35.4503L36.3464 35.5124L36.2997 35.5746L36.253 35.6367L36.1907 35.6988L36.1439 35.7454L36.0816 35.8075L36.0193 35.8541L35.957 35.9006L35.8947 35.9317L35.8323 35.9783L35.7544 36.0249L35.6766 36.0559L35.5987 36.1025L35.5208 36.1336L35.4429 36.1646L35.365 36.1957V36.1801L35.2871 36.2112L35.2092 36.2267L35.069 36.2578L34.9911 36.2733L34.9132 36.2888L34.8353 36.3044L34.7574 36.3199L34.6639 36.3354L34.5861 36.3509H34.2745L34.1966 36.3354H34.1031L34.0252 36.3199L33.9473 36.3044L33.8539 36.2888L33.776 36.2733L33.6981 36.2578L33.6202 36.2423L33.5423 36.2267L33.4644 36.2112L33.3865 36.1957L33.3086 36.1646L33.2307 36.1491L33.1528 36.118L33.0749 36.087L32.997 36.0559L32.9191 36.0249L32.8412 35.9938L32.7633 35.9627L32.6855 35.9317L32.6076 35.9006L32.5297 35.8696L32.4518 35.8385L32.3739 35.7919L32.3116 35.7454L32.2337 35.6988L32.1714 35.6522L32.109 35.6056L32.0467 35.559L31.9844 35.5124L31.9221 35.4659L31.8598 35.4193L31.7975 35.3727L31.7352 35.3106L31.7819 35.2485L31.8442 35.1864L31.8909 35.1242L31.9533 35.0621L32 35L32.0467 34.9379L32.109 34.8758L32.1558 34.8137L32.2181 34.7516L32.2648 34.6895L32.3271 34.6273L32.3739 34.5652L32.4206 34.5031L32.4829 34.441L32.5297 34.3789L32.592 34.3168L32.6387 34.2547L32.701 34.3013L32.7789 34.3478L32.8412 34.3944L32.9191 34.441L32.9814 34.4876L33.0593 34.5342L33.1217 34.5808L33.1995 34.6118L33.2619 34.6584L33.3398 34.6895L33.4177 34.7205L33.4955 34.7516L33.5734 34.7826L33.6513 34.8137L33.7292 34.8447L33.8071 34.8758L33.885 34.9068L33.9629 34.9224L34.1187 34.9534L34.2122 34.969L34.2901 34.9845H34.368L34.4614 35H34.6328L34.7263 34.9845L34.8041 34.969L34.882 34.9534L34.9599 34.9379L35.0223 34.9068L35.0846 34.8758L35.1469 34.8292L35.1936 34.7671L35.2248 34.705L35.2559 34.6273L35.2715 34.5497V34.5342L35.2559 34.441L35.2248 34.3634L35.178 34.3013L35.1157 34.2547L35.0534 34.2081L34.9911 34.177L34.9132 34.146L34.8353 34.1149L34.7418 34.0683L34.6795 34.0528L34.6172 34.0373L34.5393 34.0062L34.4614 33.9907L34.3835 33.9596L34.3056 33.9441L34.2122 33.9131L34.1343 33.8975L34.0408 33.8665L33.9629 33.8509L33.885 33.8199L33.8071 33.8044L33.7292 33.7733L33.6513 33.7422L33.5734 33.7267L33.4955 33.6957L33.4177 33.6646L33.3398 33.6336L33.2463 33.6025L33.1684 33.5714L33.0905 33.5404L33.0126 33.5093L32.9347 33.4627L32.8568 33.4162L32.7945 33.3696L32.7166 33.323L32.6543 33.2764L32.592 33.2298L32.5297 33.1832L32.4674 33.1211L32.405 33.059L32.3583 32.9969L32.3116 32.9348L32.2648 32.8727L32.2181 32.8106L32.1714 32.7329L32.1402 32.6708L32.109 32.6087L32.0935 32.5311L32.0623 32.469L32.0467 32.3913L32.0311 32.3137L32.0156 32.236L32 32.1584L31.9844 32.0652V31.8789L32 31.8013L32.0156 31.7236L32.0311 31.646L32.0467 31.5683L32.0623 31.4907L32.0935 31.4131L32.109 31.3354L32.1402 31.2578L32.1714 31.1801L32.2025 31.1025L32.2493 31.0249L32.296 30.9472L32.3427 30.8851L32.3895 30.823L32.4518 30.7609L32.5141 30.6988L32.5764 30.6367L32.6387 30.5745L32.701 30.528L32.7633 30.4814L32.8257 30.4348L32.888 30.3882L32.9659 30.3416L33.0438 30.3106L33.1217 30.264L33.1995 30.2329L33.2774 30.2019L33.3553 30.1708L33.4332 30.1398L33.4955 30.1242L33.5734 30.1087L33.6513 30.0932L33.7292 30.0777L33.8071 30.0621L33.885 30.0466L33.9629 30.0311L34.0408 30.0155L34.1187 30H34.4614L34.5549 30.0155L34.6484 30.0311H34.7263L34.8197 30.0466L34.8976 30.0621L34.9911 30.0777L35.069 30.0932L35.1469 30.1087L35.2248 30.1242L35.3027 30.1398L35.3806 30.1553L35.4585 30.1863L35.5364 30.2174L35.6142 30.2329L35.6921 30.264L35.77 30.295L35.8479 30.3261L35.9258 30.3572L36.0037 30.3882L36.0816 30.4348L36.1439 30.4659L36.2218 30.5124L36.2997 30.559L36.362 30.6056L36.4399 30.6522L36.5022 30.6988L36.5645 30.7454L36.6269 30.7919L36.6892 30.8385L36.6424 30.9006L36.5957 30.9627L36.549 31.0249L36.5022 31.087L36.4555 31.1646L36.4088 31.2267L36.362 31.2888L36.3153 31.3509L36.2685 31.4131L36.2218 31.4752L36.1751 31.5373L36.1283 31.5994L36.0816 31.677L36.0349 31.7391L35.9881 31.8013L35.8323 32.1429L35.7856 32.205L35.7233 32.1584L35.6454 32.1118L35.5831 32.0652L35.5208 32.0186L35.4429 31.9876L35.3806 31.941L35.3027 31.91L35.2404 31.8789L35.1625 31.8478L35.1001 31.8168L35.0223 31.7857L34.9599 31.7547L34.8665 31.7236L34.7886 31.6926L34.7107 31.6615L34.6328 31.646L34.5861 31.677L34.5082 31.6615L34.4303 31.646L34.3524 31.6304L34.2745 31.6149H34.1031L34.0096 31.6304L33.9317 31.646L33.8539 31.6615L33.7915 31.6926L33.7292 31.7236L33.6513 31.7857L33.6046 31.8634L33.5734 31.941L33.5579 32.0186V32.0342L33.5734 32.1429L33.6046 32.236L33.6357 32.2826L33.6981 32.3447L33.776 32.3913L33.8383 32.4379L33.9162 32.469L34.0096 32.5L34.1031 32.5311L34.1654 32.5466L34.2277 32.5777L34.3056 32.5932L34.3835 32.6242L34.4614 32.6398L34.5549 32.6708L34.6484 32.7019L34.7418 32.7329L34.8353 32.7485L34.9132 32.7795L35.0067 32.8106L35.0846 32.8261L35.1625 32.8572L35.2404 32.8882L35.3182 32.9193L35.3961 32.9503L35.474 32.9814L35.5519 32.9969L35.6454 33.028L35.7233 33.0745L35.8012 33.1056L35.8791 33.1522L35.957 33.1988L36.0349 33.2454L36.0972 33.2919L36.1595 33.3385L36.2218 33.3851L36.2841 33.4472L36.3464 33.5093L36.4088 33.5714L36.4711 33.6336L36.5178 33.6957L36.5645 33.7733L36.6113 33.8354L36.658 33.9131L36.6892 33.9752L36.7203 34.0528L36.7359 34.1304L36.7515 34.2081L36.7826 34.3634L36.7982 34.441L36.8138 34.5342V34.7205L36.7048 34.6273ZM31.1743 36.2112H26.6409V30.4503H31.2055V31.7547H28.1521V32.7019H30.8939V33.9286H28.1521V34.9068H31.2522V36.2112H31.1743ZM25.3946 36.2112H23.9458V32.8106L23.8991 32.8727L23.8523 32.9503L23.8056 33.0124L23.7589 33.0745L23.7121 33.1522L23.6654 33.2143L23.6187 33.2764L23.5719 33.354L23.5252 33.4162L23.4785 33.4783L23.4317 33.5404L23.385 33.618L23.3383 33.6801L23.2915 33.7422L23.2448 33.8199L23.198 33.882L23.1513 33.9441L23.1046 34.0218L23.0734 34.0839L23.0267 34.146L22.9799 34.2236L22.9332 34.2857L22.8865 34.3478L22.8397 34.4255L22.793 34.4876L22.7618 34.5497L22.7151 34.6118L22.6684 34.6895L22.6216 34.7516L22.5749 34.8137L22.5437 34.8913L22.497 34.9534L22.4503 35.0155L22.4035 35.0932L22.3568 35.1553H22.3256L22.2789 35.0777L22.2322 35.0155L22.1854 34.9379L22.1387 34.8758L22.092 34.7982L22.0452 34.736L21.9985 34.6584L21.9517 34.5963L21.905 34.5186L21.8739 34.4565L21.8271 34.3789L21.7804 34.3168L21.7336 34.2391L21.8115 34.1615L21.7648 34.0839L21.7181 34.0218L21.6713 33.9441L21.6246 33.882L21.5779 33.8044L21.5311 33.7422L21.5 33.6957L21.4532 33.6336L21.4065 33.5559L21.3598 33.4938L21.313 33.4162L21.2663 33.354L21.2196 33.2764L21.1884 33.2298L21.1417 33.1522L21.0949 33.0901L21.0482 33.0124L21.0015 32.9503L20.9547 32.8727L20.908 32.8106V36.1957H19.4124V30.4348H21.0326L21.0793 30.4969L21.1261 30.5745L21.1728 30.6367L21.2196 30.7143L21.2663 30.7764L21.313 30.854L21.3598 30.9162L21.4065 30.9938L21.4532 31.0559L21.5 31.118L21.5467 31.1957L21.5934 31.2578L21.6402 31.3354L21.6869 31.3975L21.7336 31.4752L21.7804 31.5373L21.8271 31.5994L21.8739 31.677L21.9206 31.7391L21.9673 31.8168L22.0141 31.8789L22.0608 31.9565L22.1075 32.0186L22.1387 32.0963L22.1854 32.1584L22.2166 32.2205L22.2633 32.2982L22.3101 32.3603L22.3568 32.4379L22.4035 32.5L22.4347 32.5777L22.4814 32.6398L22.5282 32.7174L22.5749 32.7795L22.6216 32.7174L22.6684 32.6398L22.7151 32.5777L22.7618 32.5L22.8086 32.4379L22.8553 32.3603L22.902 32.2982L22.9488 32.2205L22.9955 32.1584L23.0267 32.0963L23.0734 32.0186L23.1201 31.9565L23.1669 31.8789L23.2136 31.8168L23.2604 31.7391L23.3071 31.677L23.3538 31.5994L23.4006 31.5373L23.4473 31.4752L23.494 31.3975L23.5408 31.3354L23.5875 31.2578L23.6342 31.1957L23.681 31.118L23.7121 31.0559L23.7589 30.9938L23.8056 30.9162L23.8523 30.854L23.8991 30.7764L23.9458 30.7143L23.9926 30.6367L24.0393 30.5745L24.086 30.4969L24.1328 30.4348H25.7529V36.1957L25.3946 36.2112ZM16.2344 33.8354L16.2032 33.7578L16.1721 33.6801L16.1409 33.6025L16.1098 33.5249L16.0786 33.4472L16.0474 33.3696L16.0163 33.2919L15.9851 33.2143L15.954 33.1367L15.9228 33.059L15.8916 32.9814L15.8605 32.9037L15.8293 32.8261L15.7982 32.7485L15.767 32.6708L15.7359 32.5932L15.7047 32.5155L15.6735 32.4379L15.6424 32.3603L15.6112 32.2826L15.5801 32.205L15.5489 32.1273L15.5178 32.205L15.4866 32.2826L15.4554 32.3603L15.4243 32.4379L15.3931 32.5155L15.362 32.5932L15.3308 32.6708L15.2997 32.7485L15.2685 32.8261L15.2373 32.9037L15.2062 32.9814L15.175 33.059L15.1439 33.1367L15.1127 33.2143L15.0816 33.2919L15.0504 33.3696L15.0192 33.4472L14.9881 33.5249L14.9569 33.6025L14.9258 33.6801L14.8946 33.7578L14.8635 33.8354L14.8323 33.9131H16.1721L16.2344 33.8354ZM18.7114 36.2112H17.1691L17.1379 36.1336L17.1068 36.0559L17.0756 35.9783L17.0445 35.9006L17.0133 35.823L16.9822 35.7454L16.951 35.6677L16.9198 35.5901L16.8887 35.5124L16.8575 35.4348L16.8264 35.3572L16.7952 35.2795L16.7641 35.2019L16.7329 35.1242L16.7017 35.0466H14.4584L14.4273 35.1242L14.3961 35.2019L14.3649 35.2795L14.3338 35.3572L14.3026 35.4348L14.2403 35.5746L14.2092 35.6522L14.178 35.7298L14.1468 35.8075L14.1157 35.8851L14.0845 35.9627L14.0534 36.0404L14.0222 36.118L13.9911 36.1957H12.4332L12.4643 36.118L12.5267 35.9783L12.5578 35.9006L12.589 35.823L12.6513 35.6832L12.6824 35.6056L12.7136 35.528L12.7448 35.4503L12.7759 35.4037L12.8071 35.3261L12.8382 35.2485L12.8694 35.1708L12.9005 35.0932L12.9317 35.0155L12.9629 34.9379L12.994 34.8603L13.0252 34.7826L13.0563 34.705L13.0875 34.6273L13.1186 34.5497L13.181 34.41L13.2121 34.3323L13.2433 34.2547L13.2744 34.177L13.3056 34.0994L13.3367 34.0218L13.3679 33.9441L13.3991 33.8665L13.4302 33.7888L13.4614 33.7112L13.4925 33.6336L13.5237 33.5559L13.5548 33.4783L13.586 33.4006L13.6172 33.323L13.6483 33.2454L13.6795 33.1677L13.7106 33.0901L13.7418 33.0124L13.773 32.9348L13.8041 32.8572L13.8353 32.7795L13.8664 32.7019L13.8976 32.6242L13.9287 32.5466L13.9599 32.469L13.9911 32.3913L14.0222 32.3137L14.0534 32.236L14.0845 32.1584L14.1157 32.0808L14.1468 32.0031L14.178 31.9255L14.2403 31.7857L14.2715 31.7081L14.3026 31.6304L14.3338 31.5528L14.3649 31.4752L14.3961 31.3975L14.4273 31.3199L14.4584 31.2422L14.4896 31.1646L14.5207 31.087L14.5519 31.0093L14.5675 30.9317L14.5986 30.854L14.6298 30.7764L14.6609 30.6988L14.6921 30.6211L14.7232 30.5435L14.7544 30.4659L14.7856 30.3882L14.8167 30.3106L14.879 30.1708L14.9102 30.0932H16.3746L16.4057 30.1708L16.4369 30.2485L16.4681 30.3261L16.4992 30.4037L16.5304 30.4814L16.5615 30.559L16.5927 30.6367L16.6238 30.7143L16.655 30.7919L16.6862 30.8696L16.7173 30.9472L16.7485 31.0249L16.7796 31.1025L16.8108 31.1801L16.8419 31.2578L16.8731 31.3354L16.9043 31.4131L16.9354 31.4907L16.9666 31.5683L16.9977 31.646L17.0289 31.7236L17.06 31.8013L17.0912 31.8789L17.1224 31.9565L17.1535 32.0342L17.1847 32.1118L17.2158 32.1895L17.247 32.2671L17.2782 32.3447L17.3093 32.4224L17.3716 32.5621L17.4028 32.6398L17.4339 32.7174L17.4651 32.795L17.4963 32.8727L17.5274 32.9503L17.5586 33.028L17.5897 33.1056L17.6209 33.1832L17.652 33.2609L17.6832 33.3385L17.7144 33.4162L17.7455 33.4938L17.7767 33.5714L17.8078 33.6491L17.839 33.7267L17.8701 33.8044L17.9013 33.882L17.9325 33.9596L17.9636 34.0373L17.9948 34.1149L18.0259 34.1926L18.0571 34.2702L18.0882 34.3478L18.1194 34.4255L18.1506 34.5031L18.1817 34.5808L18.2129 34.6584L18.244 34.736L18.2752 34.8137L18.3063 34.8913L18.3375 34.969L18.3687 35.0466L18.3998 35.1242L18.431 35.2019L18.4621 35.2795L18.4933 35.3572L18.5244 35.4348L18.5556 35.5124L18.5868 35.5901L18.6179 35.6677L18.6491 35.7454L18.6802 35.823L18.7114 35.9006L18.7425 35.9783L18.7737 36.0559L18.8049 36.1336L18.8672 36.2733L18.7114 36.2112ZM11.7945 35.4659L11.7321 35.5124L11.6698 35.559L11.6075 35.6056L11.5452 35.6522L11.4829 35.6988L11.4206 35.7454L11.3583 35.7919L11.2804 35.8385L11.2025 35.8851L11.1246 35.9317L11.0467 35.9627L10.9688 36.0093L10.8909 36.0404L10.813 36.0714L10.7351 36.1025L10.6572 36.1336L10.5793 36.1646L10.5014 36.1957L10.4235 36.2267L10.3456 36.2578L10.2678 36.2888L10.1899 36.3044L10.112 36.3199L10.0341 36.3354L9.95618 36.3509L9.87828 36.3665L9.78481 36.382L9.70692 36.3975L9.61345 36.4131L9.53555 36.4286L9.44208 36.4441H9.19282L9.11493 36.4286L9.02146 36.4131L8.94356 36.3975L8.86567 36.382L8.78778 36.3665L8.70988 36.3509L8.63199 36.3354L8.5541 36.3199L8.4762 36.3044L8.39831 36.2888L8.32042 36.2733L8.24252 36.2423L8.16463 36.2112L8.08674 36.1801L8.00884 36.1491L7.93095 36.118L7.85306 36.087L7.77516 36.0559L7.69727 36.0093L7.63496 35.9783L7.55706 35.9317L7.49475 35.8851L7.43243 35.8385L7.37012 35.7919L7.3078 35.7454L7.24549 35.6988L7.18317 35.6522L7.12086 35.6056L7.05855 35.5435L6.99623 35.4969L6.93392 35.4348L6.8716 35.3727L6.82487 35.3106L6.77813 35.2485L6.73139 35.1864L6.68466 35.1242L6.63792 35.0621L6.59119 35L6.56003 34.9379L6.51329 34.8603L6.46656 34.7982L6.4354 34.7205L6.40424 34.6429L6.37308 34.5652L6.34193 34.4876L6.31077 34.4255L6.27961 34.3478L6.26403 34.2702L6.23288 34.1926L6.2173 34.1149L6.18614 34.0373L6.17056 33.9596V33.882L6.15498 33.8044V33.7267L6.1394 33.6491V32.9814L6.15498 32.8882L6.17056 32.8106L6.18614 32.7329L6.20172 32.6553L6.23288 32.5777L6.24845 32.5L6.27961 32.4224L6.31077 32.3447L6.34193 32.2671L6.37308 32.1895L6.40424 32.1118L6.4354 32.0342L6.46656 31.9565L6.49771 31.8789L6.54445 31.8013L6.59119 31.7391L6.62234 31.677L6.66908 31.6149L6.71581 31.5528L6.76255 31.4907L6.80929 31.4286L6.85602 31.3665L6.90276 31.3044L6.96507 31.2422L7.01181 31.1801L7.07412 31.118L7.13644 31.0559L7.19875 31.0093L7.26107 30.9472L7.32338 30.9006L7.3857 30.854L7.44801 30.8075L7.51033 30.7609L7.57264 30.7143L7.63496 30.6677L7.71285 30.6211L7.79074 30.5745L7.86864 30.528L7.94653 30.4969L8.02442 30.4659L8.10232 30.4193L8.16463 30.3882L8.24252 30.3572L8.32042 30.3261L8.39831 30.3106L8.4762 30.2795L8.5541 30.264L8.63199 30.2329L8.70988 30.2174L8.78778 30.2019L8.86567 30.1863L8.94356 30.1708L9.02146 30.1553L9.09935 30.1398L9.17724 30.1242H9.5044L9.59787 30.1398L9.69134 30.1553H9.76923L9.84713 30.1708L9.9406 30.1863L10.0185 30.2019L10.0964 30.2174L10.1743 30.2329L10.2522 30.2485L10.3301 30.264L10.408 30.2795L10.4859 30.3106L10.5637 30.3261L10.6261 30.3572L10.704 30.3882L10.8442 30.4503L10.9221 30.4814L10.9999 30.528L11.0778 30.559L11.1402 30.6056L11.218 30.6522L11.2804 30.6988L11.3583 30.7454L11.4206 30.7919L11.4829 30.8385L11.5452 30.8851L11.6075 30.9317L11.6698 30.9938L11.7321 31.0404L11.6854 31.1025L11.6231 31.1646L11.5764 31.2267L11.514 31.2888L11.4673 31.3509L11.4206 31.4131L11.3583 31.4752L11.3115 31.5373L11.2648 31.5994L11.2025 31.6615L11.1557 31.7236L11.0934 31.7857L11.0467 31.8478L10.9999 31.91L10.9376 31.9721L10.8909 32.0342L10.8286 32.0963L10.7818 32.1584L10.7195 32.1118L10.6572 32.0497L10.5949 32.0031L10.5326 31.9565L10.4703 31.91L10.408 31.8634L10.3456 31.8168L10.2678 31.7702L10.2054 31.7391L10.1431 31.7081L10.0808 31.677L10.0029 31.646L9.92502 31.6149L9.84713 31.5994L9.76923 31.5839L9.69134 31.5683L9.61345 31.5528L9.51997 31.5373L9.4265 31.5218H9.25514L9.17724 31.5373L9.09935 31.5528L9.02146 31.5683L8.94356 31.5839L8.86567 31.6149L8.78778 31.646L8.72546 31.8323L8.64757 31.8634L8.58525 31.91L8.52294 31.9565L8.46063 32.0031L8.39831 32.0497L8.336 32.0963L8.27368 32.1429L8.22695 32.205L8.16463 32.2671L8.11789 32.3292L8.07116 32.3913L8.02442 32.4534L7.99327 32.5311L7.94653 32.5932L7.91537 32.6708L7.88421 32.7485L7.85306 32.8261L7.8219 32.9037L7.80632 32.9814L7.79074 33.059L7.77516 33.1522V33.7267L7.79074 33.8044L7.80632 33.882L7.8219 33.9596L7.85306 34.0373L7.94653 34.0062L7.97769 34.0839L8.00884 34.1615L8.05558 34.2391L8.13347 34.3634L8.18021 34.4255L8.22695 34.4876L8.28926 34.5497L8.336 34.6118L8.39831 34.6584L8.46063 34.705L8.52294 34.7516L8.58525 34.7982L8.64757 34.8447L8.72546 34.8758L8.80336 34.9068L8.88125 34.9379L8.95914 34.969L9.03704 35L9.11493 35.0155L9.19282 35.0311L9.27072 35.0466L9.36419 35.0621H9.5044L9.59787 35.0466L9.69134 35.0311L9.76923 35.0155L9.84713 35L9.92502 34.9845L10.0029 34.969L10.0808 34.9534L10.1587 34.9224L10.221 34.8913L10.2989 34.8603L10.3612 34.8292L10.4235 34.7826V34.0062H9.27072V32.8572H11.8412V35.4348L11.7945 35.4659ZM9.25514 17.4224H12.6824V14.7826H9.25514V9.39442H12.8227V6.75467H6.34193V25.8075H12.8694V23.1677H9.25514V17.4224ZM33.776 17.9969V22.2982C33.776 23.059 33.4176 23.4162 32.6855 23.4162H32.1402C31.3768 23.4162 31.0185 23.059 31.0185 22.2982V10.264C31.0185 9.50312 31.3768 9.14597 32.1402 9.14597H32.6231C33.3553 9.14597 33.7136 9.50312 33.7136 10.264V13.9907H36.5645V10.0932C36.5645 7.73293 35.4273 6.58386 33.0593 6.58386H31.6417C29.2737 6.58386 28.1053 7.74846 28.1053 10.1242V22.4224C28.1053 24.7981 29.2737 25.9627 31.6417 25.9627H33.0749C35.4429 25.9627 36.6113 24.7981 36.6113 22.4224V17.9814H33.776V17.9969ZM23.681 6.75467H26.5942V25.8075H23.681V6.75467ZM19.4592 15.2174C19.4592 15.9783 19.1009 16.3354 18.3687 16.3354H17.1691V9.31678H18.3687C19.1009 9.31678 19.4592 9.67392 19.4592 10.4348V15.2174ZM18.836 6.75467H14.2715V25.8075H17.1847V18.8975H18.836C21.204 18.8975 22.3724 17.7329 22.3724 15.3572V10.295C22.3724 7.91927 21.204 6.75467 18.836 6.75467ZM13.1965 43.028H29.8501L21.3598 45.823L13.1965 43.028Z" fill="white"/>
</svg>
