<svg width="19" height="15" viewBox="0 0 19 15" fill="none" xmlns="http://www.w3.org/2000/svg">
<path d="M5.96379 15C3.76861 15 1.72233 14.3864 0 13.3276C1.46232 13.4185 4.04298 13.2007 5.64814 11.7292C3.23345 11.6227 2.14446 9.8428 2.00242 9.08215C2.20759 9.15822 3.1861 9.24949 3.73848 9.03651C0.960788 8.36714 0.534665 6.02434 0.629359 5.30933C1.15018 5.65923 2.03399 5.78093 2.3812 5.75051C-0.207105 3.97059 0.724053 1.2931 1.18174 0.71501C3.0392 3.18826 5.82296 4.57733 9.26683 4.65459C9.2019 4.38089 9.1676 4.09593 9.1676 3.80325C9.1676 1.70277 10.9341 0 13.1132 0C14.2517 0 15.2776 0.46484 15.9978 1.20837C16.7586 1.03703 17.9036 0.635914 18.4634 0.289047C18.1813 1.26268 17.3028 2.07488 16.7715 2.37592C16.7759 2.38616 16.7672 2.36563 16.7715 2.37592C17.2382 2.30807 18.5011 2.07481 19 1.74949C18.7533 2.29647 17.822 3.20591 17.0577 3.71506C17.1999 9.74221 12.4019 15 5.96379 15Z" fill="white"/>
</svg>
