<svg width="26" height="25" viewBox="0 0 26 25" fill="none" xmlns="http://www.w3.org/2000/svg">
<path d="M1.82366 7.76649C1.92809 6.22057 3.22071 5.00904 4.82988 4.93238C7.16006 4.82138 10.4906 4.6875 13 4.6875C15.5094 4.6875 18.8399 4.82138 21.1701 4.93238C22.7793 5.00904 24.0719 6.22057 24.1763 7.76649C24.2764 9.2476 24.375 11.07 24.375 12.5C24.375 13.93 24.2764 15.7524 24.1763 17.2335C24.0719 18.7794 22.7793 19.991 21.1701 20.0676C18.8399 20.1786 15.5094 20.3125 13 20.3125C10.4906 20.3125 7.16006 20.1786 4.82988 20.0676C3.22071 19.991 1.92809 18.7794 1.82366 17.2335C1.72361 15.7524 1.625 13.93 1.625 12.5C1.625 11.07 1.72361 9.2476 1.82366 7.76649Z" fill="white"/>
<path d="M10.5625 9.375V15.625L17.0625 12.5L10.5625 9.375Z" fill="black"/>
</svg>
